<svg width="35" height="30" viewBox="0 0 45 40" fill="none" xmlns="http://www.w3.org/2000/svg">
<path d="M36.9307 12.9515C36.4527 12.7876 35.9707 12.6356 35.4851 12.4959C35.5667 12.1626 35.6417 11.8333 35.7084 11.5098C36.8028 6.19734 36.0874 1.91751 33.6437 0.50839C31.3007 -0.842487 27.4689 0.56611 23.5991 3.934C23.2177 4.26652 22.8448 4.60862 22.4807 4.95997C22.2369 4.72633 21.9889 4.49723 21.7367 4.27278C17.6809 0.671724 13.6156 -0.845996 11.1745 0.567162C8.83367 1.92225 8.14051 5.94558 9.12577 10.9803C9.2238 11.479 9.33448 11.975 9.45771 12.468C8.88227 12.6315 8.327 12.8056 7.7956 12.9908C3.04051 14.6487 0.00384521 17.2468 0.00384521 19.9417C0.00384521 22.7251 3.26385 25.5168 8.21648 27.2096C8.618 27.3463 9.02286 27.4729 9.43069 27.5894C9.29824 28.1204 9.18065 28.655 9.07806 29.1926C8.13876 34.14 8.87227 38.0682 11.2068 39.4147C13.6181 40.8052 17.6651 39.3761 21.6056 35.9314C21.9251 35.6513 22.2376 35.3633 22.5428 35.0677C22.9371 35.4481 23.3419 35.8175 23.7568 36.1754C27.574 39.46 31.3438 40.7863 33.6761 39.4361C36.0851 38.0415 36.8681 33.8216 35.8516 28.6873C35.7715 28.2851 35.6817 27.8849 35.5823 27.487C35.8665 27.4028 36.1454 27.3161 36.4174 27.2259C41.5661 25.5201 44.9161 22.7622 44.9161 19.9417C44.9161 17.237 41.7814 14.6214 36.9307 12.9515V12.9515ZM35.814 25.4049C35.5684 25.4861 35.3165 25.5645 35.0596 25.6408C34.4912 23.8414 33.7242 21.928 32.7854 19.951C33.6812 18.0212 34.4188 16.1322 34.9712 14.3445C35.4307 14.4775 35.8765 14.6177 36.3063 14.7656C40.4624 16.1965 42.9975 18.3117 42.9975 19.9417C42.9975 21.6779 40.2596 23.9317 35.814 25.4049V25.4049ZM33.9695 29.06C34.4189 31.3301 34.483 33.3828 34.1852 34.9875C33.9179 36.4294 33.38 37.3907 32.7147 37.7758C31.2995 38.5951 28.2726 37.5301 25.0082 34.721C24.6223 34.3883 24.2458 34.0449 23.8789 33.6912C25.1445 32.3072 26.4093 30.6982 27.6437 28.9112C29.8149 28.7186 31.8661 28.4035 33.7263 27.9735C33.8179 28.3431 33.8993 28.7056 33.9695 29.06V29.06ZM15.3154 37.6342C13.9326 38.1224 12.8312 38.1365 12.1654 37.7526C10.7488 36.9356 10.1598 33.7814 10.9631 29.5505C11.0586 29.0505 11.168 28.5533 11.291 28.0594C13.1307 28.4665 15.167 28.7591 17.3433 28.9356C18.5861 30.6842 19.8874 32.2914 21.1988 33.6987C20.9201 33.9684 20.6348 34.2312 20.3431 34.4868C18.6005 36.01 16.8544 37.0907 15.3154 37.6342V37.6342ZM8.83718 25.3942C6.64718 24.6456 4.83858 23.6728 3.59893 22.6112C2.4849 21.6573 1.92262 20.7101 1.92262 19.9417C1.92262 18.3063 4.36069 16.2203 8.42718 14.8026C8.92069 14.6307 9.43718 14.4684 9.97314 14.3161C10.5352 16.1442 11.2724 18.0556 12.1621 19.9884C11.2609 21.9498 10.5131 23.8917 9.9456 25.7414C9.57334 25.6347 9.20375 25.519 8.83718 25.3942V25.3942ZM11.0088 10.6117C10.1647 6.29821 10.7252 3.04436 12.136 2.22769C13.6384 1.35786 16.9609 2.59804 20.4628 5.70751C20.6911 5.91074 20.9158 6.11808 21.1367 6.32944C19.8317 7.73067 18.5424 9.32593 17.3107 11.0642C15.1984 11.26 13.1765 11.5744 11.3175 11.9956C11.203 11.537 11.1 11.0756 11.0088 10.6119V10.6117ZM30.3819 15.3956C29.9428 14.6371 29.4875 13.8883 29.0161 13.1494C30.4491 13.3307 31.8221 13.5712 33.1114 13.8652C32.7244 15.1059 32.2419 16.403 31.674 17.7328C31.2589 16.9452 30.8281 16.166 30.3819 15.3956V15.3956ZM22.4816 7.70067C23.3665 8.65944 24.2528 9.72979 25.1245 10.8912C23.3561 10.8077 21.5848 10.8073 19.8163 10.8901C20.6889 9.73944 21.5828 8.6705 22.4816 7.70067ZM14.5305 15.4087C14.0899 16.1729 13.6671 16.9473 13.2626 17.7312C12.704 16.4061 12.226 15.1031 11.8356 13.8449C13.117 13.5582 14.4835 13.3238 15.9074 13.1459C15.4308 13.8893 14.9717 14.6437 14.5305 15.4086V15.4087ZM15.9482 26.874C14.4772 26.7098 13.0902 26.4875 11.8091 26.2086C12.2056 24.9279 12.6942 23.5972 13.2649 22.2437C13.671 23.0281 14.0955 23.803 14.5381 24.5675C14.9931 25.3535 15.4644 26.1233 15.9482 26.874ZM22.5345 32.3179C21.6251 31.3368 20.7181 30.2514 19.8323 29.084C20.6923 29.1177 21.5689 29.1349 22.46 29.1349C23.3754 29.1349 24.2803 29.1144 25.171 29.0747C24.2965 30.2631 23.4135 31.3501 22.5345 32.3179ZM31.6921 22.1745C32.2924 23.543 32.7984 24.8666 33.2002 26.1254C31.8981 26.4226 30.4921 26.6619 29.0107 26.8396C29.4854 26.0871 29.9451 25.3252 30.3895 24.5544C30.8413 23.7708 31.2756 22.9774 31.6921 22.1745V22.1745ZM28.7275 23.5958C28.0472 24.7776 27.3286 25.937 26.573 27.0721C25.2041 27.169 23.8323 27.2172 22.46 27.2165C21.0623 27.2165 19.7028 27.173 18.3937 27.088C17.6183 25.9556 16.886 24.7941 16.1984 23.6063H16.1986C15.5142 22.4247 14.875 21.2176 14.2823 19.9875C14.8735 18.7571 15.5108 17.5494 16.1928 16.367L16.1926 16.3672C16.8744 15.1844 17.6008 14.0279 18.3703 12.9003C19.706 12.7993 21.0756 12.7466 22.4598 12.7466H22.46C23.8505 12.7466 25.2219 12.7998 26.5572 12.9015C27.3189 14.0275 28.0407 15.18 28.7212 16.3568C29.4055 17.5367 30.0512 18.7385 30.6574 19.9603C30.0574 21.1947 29.4138 22.4072 28.7275 23.5958V23.5958ZM32.6854 2.1705C34.1893 3.03786 34.7742 6.53558 33.8293 11.1224C33.7689 11.4151 33.7012 11.7131 33.6275 12.0154C31.764 11.5852 29.7407 11.2654 27.6223 11.0666C26.3882 9.30927 25.1095 7.71155 23.8258 6.32839C24.1622 6.00409 24.5066 5.68821 24.8588 5.38102C28.1745 2.49558 31.2735 1.35629 32.6854 2.1705V2.1705ZM22.46 15.9312C24.6749 15.9312 26.4705 17.7268 26.4705 19.9417C26.4705 22.1566 24.6749 23.9523 22.46 23.9523C20.2451 23.9523 18.4495 22.1566 18.4495 19.9417C18.4495 17.7268 20.2451 15.9312 22.46 15.9312V15.9312Z" fill="#00D8FF"/>
</svg>
